<svg width="40" height="40" viewBox="0 0 40 40" fill="none" xmlns="http://www.w3.org/2000/svg">
  <defs>
    <linearGradient id="bg" x1="0" y1="0" x2="1" y2="1">
      <stop offset="0%" stop-color="#3B2FD9"/>
      <stop offset="100%" stop-color="#7C3AED"/>
    </linearGradient>
  </defs>
  <rect width="40" height="40" rx="10" fill="url(#bg)"/>
  <path d="M15 10 H25" stroke="white" stroke-width="2" stroke-linecap="round"/>
  <path d="M16.5 10 V17 L11.5 27 A3 3 0 0 0 14 31 H26 A3 3 0 0 0 28.5 27 L23.5 17 V10" stroke="white" stroke-width="2" stroke-linecap="round" stroke-linejoin="round" fill="none"/>
  <path d="M13.2 24 L26.8 24 A3 3 0 0 1 26 31 H14 A3 3 0 0 1 13.2 24 Z" fill="#B8F02D" opacity="0.9"/>
  <circle cx="18" cy="21" r="1.4" fill="#B8F02D"/>
  <path d="M31 9 L31.6 11 M31 9 L30.4 7 M31 9 L33 9.6 M31 9 L29 8.4" stroke="#B8F02D" stroke-width="1.4" stroke-linecap="round"/>
</svg>
