<svg xmlns="http://www.w3.org/2000/svg" viewBox="0 0 40 40" width="40" height="40" role="img" aria-label="Schulab">
  <defs>
    <linearGradient id="g" x1="0" y1="0" x2="1" y2="1">
      <stop offset="0%" stop-color="#4F3FF0"/>
      <stop offset="52%" stop-color="#8B5CF6"/>
      <stop offset="100%" stop-color="#FF8A3D"/>
    </linearGradient>
  </defs>
  <rect width="40" height="40" rx="10" fill="url(#g)"/>
  <ellipse cx="12.8" cy="9.6" rx="20.8" ry="16" fill="#fff" opacity="0.1"/>
  <path d="M20 4.8C23.2 7.2 26 12 26 17.6L26 23.2C26 26.8 23.2 28.4 20 28.4C16.8 28.4 14 26.8 14 23.2L14 17.6C14 12 16.8 7.2 20 4.8Z" fill="#fff"/>
  <path d="M20 27.6C16 30 11.2 32.4 7.2 34.8C12 33.2 16.4 32.4 20 32.4C23.6 32.4 28 33.2 32.8 34.8C28.8 32.4 24 30 20 27.6Z" fill="#fff"/>
  <path d="M14 21.6L9.6 26.8L14 25.6Z" fill="#fff"/>
  <path d="M26 21.6L30.4 26.8L26 25.6Z" fill="#fff"/>
  <circle cx="20" cy="16" r="3.4" fill="#FF8A3D"/>
  <path d="M32 4.4L32.88 6.72L35.2 7.6L32.88 8.48L32 10.8L31.12 8.48L28.8 7.6L31.12 6.72Z" fill="#FF8A3D"/>
</svg>
